<?xml version="1.0" encoding="UTF-8" standalone="no"?>
<!DOCTYPE svg PUBLIC "-//W3C//DTD SVG 1.0//EN"
 "http://www.w3.org/TR/2001/REC-SVG-20010904/DTD/svg10.dtd" [
 <!ATTLIST svg xmlns:xlink CDATA #FIXED "http://www.w3.org/1999/xlink">
]>
<!-- Generated by Graphviz version 2.20.2 (Sun Oct 12 22:28:10 UTC 2008)
     For user: (axch) Alexey Radul -->
<!-- Title: G Pages: 1 -->
<svg width="1190pt" height="337pt"
 viewBox="0.00 0.00 1190.00 337.00" xmlns="http://www.w3.org/2000/svg" xmlns:xlink="http://www.w3.org/1999/xlink">
<g id="graph0" class="graph" transform="scale(1 1) rotate(0) translate(4 333)">
<title>G</title>
<polygon style="fill:white;stroke:white;" points="-4,4 -4,-333 1186,-333 1186,4 -4,4"/>
<g id="cluster2" class="cluster"><title>cluster_11</title>
<polygon style="fill:none;stroke:black;" points="8,-16 8,-321 1174,-321 1174,-16 8,-16"/>
<text text-anchor="middle" x="591" y="-304.9" style="font-family:Times New Roman;font-size:14.00;">top&#45;group</text>
</g>
<g id="cluster3" class="cluster"><title>cluster_12</title>
<polygon style="fill:none;stroke:black;" points="412,-24 412,-101 626,-101 626,-24 412,-24"/>
<text text-anchor="middle" x="519" y="-84.9" style="font-family:Times New Roman;font-size:14.00;">product&#45;constraint</text>
</g>
<g id="cluster4" class="cluster"><title>cluster_19</title>
<polygon style="fill:none;stroke:black;" points="169,-24 169,-101 383,-101 383,-24 169,-24"/>
<text text-anchor="middle" x="276" y="-84.9" style="font-family:Times New Roman;font-size:14.00;">product&#45;constraint</text>
</g>
<g id="cluster5" class="cluster"><title>cluster_25</title>
<polygon style="fill:none;stroke:black;" points="667,-24 667,-101 881,-101 881,-24 667,-24"/>
<text text-anchor="middle" x="774" y="-84.9" style="font-family:Times New Roman;font-size:14.00;">product&#45;constraint</text>
</g>
<g id="cluster6" class="cluster"><title>cluster_31</title>
<polygon style="fill:none;stroke:black;" points="889,-24 889,-101 1103,-101 1103,-24 889,-24"/>
<text text-anchor="middle" x="996" y="-84.9" style="font-family:Times New Roman;font-size:14.00;">product&#45;constraint</text>
</g>
<g id="cluster7" class="cluster"><title>cluster_37</title>
<polygon style="fill:none;stroke:black;" points="1024,-211 1024,-288 1166,-288 1166,-211 1024,-211"/>
<text text-anchor="middle" x="1095" y="-271.9" style="font-family:Times New Roman;font-size:14.00;">quadratic&#45;constraint</text>
</g>
<!-- prop&#45;13 -->
<g id="node3" class="node"><title>prop&#45;13</title>
<polygon style="fill:none;stroke:black;" points="474,-68 420,-68 420,-32 474,-32 474,-68"/>
<text text-anchor="middle" x="447" y="-45.9" style="font-family:Times New Roman;font-size:14.00;">/</text>
</g>
<!-- cell&#45;16 -->
<g id="node28" class="node"><title>cell&#45;16</title>
<ellipse style="fill:none;stroke:black;" cx="519" cy="-163" rx="75.0473" ry="18"/>
<text text-anchor="middle" x="519" y="-158.9" style="font-family:Times New Roman;font-size:14.00;">building&#45;shadow</text>
</g>
<!-- prop&#45;13&#45;&gt;cell&#45;16 -->
<g id="edge12" class="edge"><title>prop&#45;13&#45;&gt;cell&#45;16</title>
<path style="fill:none;stroke:black;" d="M459,-68C470,-86 489,-115 502,-137"/>
<polygon style="fill:black;stroke:black;" points="499.2,-139.1 508,-145 504.8,-134.9 499.2,-139.1"/>
</g>
<!-- prop&#45;17 -->
<g id="node4" class="node"><title>prop&#45;17</title>
<polygon style="fill:none;stroke:black;" points="546,-68 492,-68 492,-32 546,-32 546,-68"/>
<text text-anchor="middle" x="519" y="-45.9" style="font-family:Times New Roman;font-size:14.00;">/</text>
</g>
<!-- cell&#45;15 -->
<g id="node10" class="node"><title>cell&#45;15</title>
<ellipse style="fill:none;stroke:black;" cx="398" cy="-163" rx="27.9903" ry="18"/>
<text text-anchor="middle" x="398" y="-158.9" style="font-family:Times New Roman;font-size:14.00;">ratio</text>
</g>
<!-- prop&#45;17&#45;&gt;cell&#45;15 -->
<g id="edge18" class="edge"><title>prop&#45;17&#45;&gt;cell&#45;15</title>
<path style="fill:none;stroke:black;" d="M511,-68C505,-79 496,-93 483,-101 468,-111 458,-98 442,-109 435,-114 438,-119 432,-127 429,-131 425,-136 421,-140"/>
<polygon style="fill:black;stroke:black;" points="417.951,-138.169 414,-148 423.219,-142.779 417.951,-138.169"/>
</g>
<!-- prop&#45;18 -->
<g id="node5" class="node"><title>prop&#45;18</title>
<polygon style="fill:none;stroke:black;" points="618,-68 564,-68 564,-32 618,-32 618,-68"/>
<text text-anchor="middle" x="591" y="-45.9" style="font-family:Times New Roman;font-size:14.00;">*</text>
</g>
<!-- cell&#45;14 -->
<g id="node31" class="node"><title>cell&#45;14</title>
<ellipse style="fill:none;stroke:black;" cx="680" cy="-163" rx="68.0985" ry="18"/>
<text text-anchor="middle" x="680" y="-158.9" style="font-family:Times New Roman;font-size:14.00;">building&#45;height</text>
</g>
<!-- prop&#45;18&#45;&gt;cell&#45;14 -->
<g id="edge24" class="edge"><title>prop&#45;18&#45;&gt;cell&#45;14</title>
<path style="fill:none;stroke:black;" d="M612,-68C623,-79 638,-94 649,-109 656,-117 661,-127 666,-136"/>
<polygon style="fill:black;stroke:black;" points="663.084,-137.958 671,-145 669.203,-134.559 663.084,-137.958"/>
</g>
<!-- prop&#45;20 -->
<g id="node7" class="node"><title>prop&#45;20</title>
<polygon style="fill:none;stroke:black;" points="231,-68 177,-68 177,-32 231,-32 231,-68"/>
<text text-anchor="middle" x="204" y="-45.9" style="font-family:Times New Roman;font-size:14.00;">/</text>
</g>
<!-- cell&#45;22 -->
<g id="node29" class="node"><title>cell&#45;22</title>
<ellipse style="fill:none;stroke:black;" cx="99" cy="-163" rx="82.8866" ry="18"/>
<text text-anchor="middle" x="99" y="-158.9" style="font-family:Times New Roman;font-size:14.00;">barometer&#45;shadow</text>
</g>
<!-- prop&#45;20&#45;&gt;cell&#45;22 -->
<g id="edge30" class="edge"><title>prop&#45;20&#45;&gt;cell&#45;22</title>
<path style="fill:none;stroke:black;" d="M186,-68C174,-80 159,-95 146,-109 137,-118 128,-128 121,-137"/>
<polygon style="fill:black;stroke:black;" points="117.951,-135.169 114,-145 123.219,-139.779 117.951,-135.169"/>
</g>
<!-- prop&#45;23 -->
<g id="node8" class="node"><title>prop&#45;23</title>
<polygon style="fill:none;stroke:black;" points="375,-68 321,-68 321,-32 375,-32 375,-68"/>
<text text-anchor="middle" x="348" y="-45.9" style="font-family:Times New Roman;font-size:14.00;">/</text>
</g>
<!-- prop&#45;23&#45;&gt;cell&#45;15 -->
<g id="edge36" class="edge"><title>prop&#45;23&#45;&gt;cell&#45;15</title>
<path style="fill:none;stroke:black;" d="M356,-68C364,-87 377,-115 386,-136"/>
<polygon style="fill:black;stroke:black;" points="382.74,-137.283 390,-145 389.137,-134.44 382.74,-137.283"/>
</g>
<!-- prop&#45;24 -->
<g id="node9" class="node"><title>prop&#45;24</title>
<polygon style="fill:none;stroke:black;" points="303,-68 249,-68 249,-32 303,-32 303,-68"/>
<text text-anchor="middle" x="276" y="-45.9" style="font-family:Times New Roman;font-size:14.00;">*</text>
</g>
<!-- cell&#45;21 -->
<g id="node30" class="node"><title>cell&#45;21</title>
<ellipse style="fill:none;stroke:black;" cx="276" cy="-163" rx="75.9375" ry="18"/>
<text text-anchor="middle" x="276" y="-158.9" style="font-family:Times New Roman;font-size:14.00;">barometer&#45;height</text>
</g>
<!-- prop&#45;24&#45;&gt;cell&#45;21 -->
<g id="edge42" class="edge"><title>prop&#45;24&#45;&gt;cell&#45;21</title>
<path style="fill:none;stroke:black;" d="M276,-68C276,-86 276,-114 276,-135"/>
<polygon style="fill:black;stroke:black;" points="272.5,-135 276,-145 279.5,-135 272.5,-135"/>
</g>
<!-- cell&#45;15&#45;&gt;prop&#45;13 -->
<g id="edge10" class="edge"><title>cell&#45;15&#45;&gt;prop&#45;13</title>
<path style="fill:none;stroke:black;" d="M406,-145C414,-128 426,-99 435,-77"/>
<polygon style="fill:black;stroke:black;" points="438.137,-78.5596 439,-68 431.74,-75.7166 438.137,-78.5596"/>
<text text-anchor="middle" x="426" y="-113.9" style="font-family:Times New Roman;font-size:14.00;">1</text>
</g>
<!-- cell&#45;15&#45;&gt;prop&#45;18 -->
<g id="edge22" class="edge"><title>cell&#45;15&#45;&gt;prop&#45;18</title>
<path style="fill:none;stroke:black;" d="M419,-151C440,-138 476,-119 508,-109 529,-102 538,-112 555,-101 565,-95 572,-86 578,-77"/>
<polygon style="fill:black;stroke:black;" points="581.203,-78.4414 583,-68 575.084,-75.0418 581.203,-78.4414"/>
<text text-anchor="middle" x="512" y="-113.9" style="font-family:Times New Roman;font-size:14.00;">1</text>
</g>
<!-- cell&#45;15&#45;&gt;prop&#45;20 -->
<g id="edge28" class="edge"><title>cell&#45;15&#45;&gt;prop&#45;20</title>
<path style="fill:none;stroke:black;" d="M377,-151C365,-144 350,-135 337,-127 326,-119 325,-113 312,-109 282,-97 268,-117 240,-101 231,-95 224,-85 217,-76"/>
<polygon style="fill:black;stroke:black;" points="220.268,-74.625 212,-68 214.332,-78.335 220.268,-74.625"/>
<text text-anchor="middle" x="347" y="-113.9" style="font-family:Times New Roman;font-size:14.00;">1</text>
</g>
<!-- cell&#45;15&#45;&gt;prop&#45;24 -->
<g id="edge40" class="edge"><title>cell&#45;15&#45;&gt;prop&#45;24</title>
<path style="fill:none;stroke:black;" d="M386,-147C375,-134 360,-118 342,-109 330,-102 324,-108 312,-101 303,-95 296,-86 290,-77"/>
<polygon style="fill:black;stroke:black;" points="292.916,-75.0418 285,-68 286.797,-78.4414 292.916,-75.0418"/>
<text text-anchor="middle" x="373" y="-113.9" style="font-family:Times New Roman;font-size:14.00;">1</text>
</g>
<!-- prop&#45;26 -->
<g id="node12" class="node"><title>prop&#45;26</title>
<polygon style="fill:none;stroke:black;" points="729,-68 675,-68 675,-32 729,-32 729,-68"/>
<text text-anchor="middle" x="702" y="-45.9" style="font-family:Times New Roman;font-size:14.00;">/</text>
</g>
<!-- cell&#45;28 -->
<g id="node25" class="node"><title>cell&#45;28</title>
<ellipse style="fill:none;stroke:black;" cx="808" cy="-163" rx="41.8891" ry="18"/>
<text text-anchor="middle" x="808" y="-158.9" style="font-family:Times New Roman;font-size:14.00;">one&#45;half</text>
</g>
<!-- prop&#45;26&#45;&gt;cell&#45;28 -->
<g id="edge48" class="edge"><title>prop&#45;26&#45;&gt;cell&#45;28</title>
<path style="fill:none;stroke:black;" d="M714,-68C720,-78 729,-91 738,-101 751,-115 767,-129 780,-140"/>
<polygon style="fill:black;stroke:black;" points="778.169,-143.049 788,-147 782.779,-137.781 778.169,-143.049"/>
</g>
<!-- prop&#45;29 -->
<g id="node13" class="node"><title>prop&#45;29</title>
<polygon style="fill:none;stroke:black;" points="801,-68 747,-68 747,-32 801,-32 801,-68"/>
<text text-anchor="middle" x="774" y="-45.9" style="font-family:Times New Roman;font-size:14.00;">/</text>
</g>
<!-- cell&#45;27 -->
<g id="node27" class="node"><title>cell&#45;27</title>
<ellipse style="fill:none;stroke:black;" cx="895" cy="-163" rx="27.1004" ry="18"/>
<text text-anchor="middle" x="895" y="-158.9" style="font-family:Times New Roman;font-size:14.00;">gt^2</text>
</g>
<!-- prop&#45;29&#45;&gt;cell&#45;27 -->
<g id="edge54" class="edge"><title>prop&#45;29&#45;&gt;cell&#45;27</title>
<path style="fill:none;stroke:black;" d="M782,-68C789,-79 798,-93 810,-101 827,-111 838,-97 855,-109 863,-114 861,-119 867,-127 869,-131 872,-135 876,-139"/>
<polygon style="fill:black;stroke:black;" points="873.2,-141.1 882,-147 878.8,-136.9 873.2,-141.1"/>
</g>
<!-- prop&#45;30 -->
<g id="node14" class="node"><title>prop&#45;30</title>
<polygon style="fill:none;stroke:black;" points="873,-68 819,-68 819,-32 873,-32 873,-68"/>
<text text-anchor="middle" x="846" y="-45.9" style="font-family:Times New Roman;font-size:14.00;">*</text>
</g>
<!-- prop&#45;30&#45;&gt;cell&#45;14 -->
<g id="edge60" class="edge"><title>prop&#45;30&#45;&gt;cell&#45;14</title>
<path style="fill:none;stroke:black;" d="M837,-68C831,-79 822,-93 810,-101 796,-110 789,-102 773,-109 753,-117 731,-129 713,-140"/>
<polygon style="fill:black;stroke:black;" points="710.379,-137.541 704,-146 714.262,-143.365 710.379,-137.541"/>
</g>
<!-- prop&#45;32 -->
<g id="node16" class="node"><title>prop&#45;32</title>
<polygon style="fill:none;stroke:black;" points="951,-68 897,-68 897,-32 951,-32 951,-68"/>
<text text-anchor="middle" x="924" y="-45.9" style="font-family:Times New Roman;font-size:14.00;">/</text>
</g>
<!-- cell&#45;34 -->
<g id="node24" class="node"><title>cell&#45;34</title>
<ellipse style="fill:none;stroke:black;" cx="967" cy="-163" rx="27" ry="18"/>
<text text-anchor="middle" x="967" y="-158.9" style="font-family:Times New Roman;font-size:14.00;">g</text>
</g>
<!-- prop&#45;32&#45;&gt;cell&#45;34 -->
<g id="edge66" class="edge"><title>prop&#45;32&#45;&gt;cell&#45;34</title>
<path style="fill:none;stroke:black;" d="M936,-68C943,-79 951,-94 957,-109 960,-117 962,-126 964,-135"/>
<polygon style="fill:black;stroke:black;" points="960.522,-135.398 965,-145 967.488,-134.701 960.522,-135.398"/>
</g>
<!-- prop&#45;35 -->
<g id="node17" class="node"><title>prop&#45;35</title>
<polygon style="fill:none;stroke:black;" points="1023,-68 969,-68 969,-32 1023,-32 1023,-68"/>
<text text-anchor="middle" x="996" y="-45.9" style="font-family:Times New Roman;font-size:14.00;">/</text>
</g>
<!-- cell&#45;33 -->
<g id="node26" class="node"><title>cell&#45;33</title>
<ellipse style="fill:none;stroke:black;" cx="1139" cy="-163" rx="27" ry="18"/>
<text text-anchor="middle" x="1139" y="-158.9" style="font-family:Times New Roman;font-size:14.00;">t^2</text>
</g>
<!-- prop&#45;35&#45;&gt;cell&#45;33 -->
<g id="edge72" class="edge"><title>prop&#45;35&#45;&gt;cell&#45;33</title>
<path style="fill:none;stroke:black;" d="M1004,-68C1010,-79 1019,-93 1032,-101 1057,-116 1073,-93 1099,-109 1100,-109 1110,-124 1121,-139"/>
<polygon style="fill:black;stroke:black;" points="1118.2,-141.1 1127,-147 1123.8,-136.9 1118.2,-141.1"/>
</g>
<!-- prop&#45;36 -->
<g id="node18" class="node"><title>prop&#45;36</title>
<polygon style="fill:none;stroke:black;" points="1095,-68 1041,-68 1041,-32 1095,-32 1095,-68"/>
<text text-anchor="middle" x="1068" y="-45.9" style="font-family:Times New Roman;font-size:14.00;">*</text>
</g>
<!-- prop&#45;36&#45;&gt;cell&#45;27 -->
<g id="edge78" class="edge"><title>prop&#45;36&#45;&gt;cell&#45;27</title>
<path style="fill:none;stroke:black;" d="M1060,-68C1053,-79 1044,-93 1032,-101 1008,-115 995,-96 971,-109 961,-114 962,-120 954,-127 945,-134 934,-141 925,-147"/>
<polygon style="fill:black;stroke:black;" points="923.042,-144.084 916,-152 926.441,-150.203 923.042,-144.084"/>
</g>
<!-- prop&#45;38 -->
<g id="node20" class="node"><title>prop&#45;38</title>
<polygon style="fill:none;stroke:black;" points="1158,-255 1104,-255 1104,-219 1158,-219 1158,-255"/>
<text text-anchor="middle" x="1131" y="-232.9" style="font-family:Times New Roman;font-size:14.00;">sqrt</text>
</g>
<!-- cell&#45;39 -->
<g id="node32" class="node"><title>cell&#45;39</title>
<ellipse style="fill:none;stroke:black;" cx="1053" cy="-163" rx="41.1906" ry="18"/>
<text text-anchor="middle" x="1053" y="-158.9" style="font-family:Times New Roman;font-size:14.00;">fall&#45;time</text>
</g>
<!-- prop&#45;38&#45;&gt;cell&#45;39 -->
<g id="edge82" class="edge"><title>prop&#45;38&#45;&gt;cell&#45;39</title>
<path style="fill:none;stroke:black;" d="M1112,-219C1101,-209 1089,-197 1078,-186"/>
<polygon style="fill:black;stroke:black;" points="1079.83,-182.951 1070,-179 1075.22,-188.219 1079.83,-182.951"/>
</g>
<!-- prop&#45;40 -->
<g id="node21" class="node"><title>prop&#45;40</title>
<polygon style="fill:none;stroke:black;" points="1086,-255 1032,-255 1032,-219 1086,-219 1086,-255"/>
<text text-anchor="middle" x="1059" y="-232.9" style="font-family:Times New Roman;font-size:14.00;">square</text>
</g>
<!-- prop&#45;40&#45;&gt;cell&#45;33 -->
<g id="edge86" class="edge"><title>prop&#45;40&#45;&gt;cell&#45;33</title>
<path style="fill:none;stroke:black;" d="M1079,-219C1090,-208 1104,-196 1116,-185"/>
<polygon style="fill:black;stroke:black;" points="1118.4,-187.546 1123,-178 1113.45,-182.596 1118.4,-187.546"/>
</g>
<!-- prop&#45;41 -->
<g id="node22" class="node"><title>prop&#45;41</title>
<polygon style="fill:none;stroke:black;" points="796,-255 622,-255 622,-219 796,-219 796,-255"/>
<text text-anchor="middle" x="709" y="-232.9" style="font-family:Times New Roman;font-size:14.00;">(constant #(interval 1/2 1/2))</text>
</g>
<!-- prop&#45;41&#45;&gt;cell&#45;28 -->
<g id="edge88" class="edge"><title>prop&#45;41&#45;&gt;cell&#45;28</title>
<path style="fill:none;stroke:black;" d="M733,-219C747,-209 764,-195 779,-185"/>
<polygon style="fill:black;stroke:black;" points="781.1,-187.8 787,-179 776.9,-182.2 781.1,-187.8"/>
</g>
<!-- prop&#45;42 -->
<g id="node23" class="node"><title>prop&#45;42</title>
<polygon style="fill:none;stroke:black;" points="1014,-255 814,-255 814,-219 1014,-219 1014,-255"/>
<text text-anchor="middle" x="914" y="-232.9" style="font-family:Times New Roman;font-size:14.00;">(constant #(interval 9.789 9.832))</text>
</g>
<!-- prop&#45;42&#45;&gt;cell&#45;34 -->
<g id="edge90" class="edge"><title>prop&#45;42&#45;&gt;cell&#45;34</title>
<path style="fill:none;stroke:black;" d="M927,-219C934,-210 942,-198 949,-188"/>
<polygon style="fill:black;stroke:black;" points="951.8,-190.1 955,-180 946.2,-185.9 951.8,-190.1"/>
</g>
<!-- cell&#45;34&#45;&gt;prop&#45;35 -->
<g id="edge70" class="edge"><title>cell&#45;34&#45;&gt;prop&#45;35</title>
<path style="fill:none;stroke:black;" d="M972,-145C976,-127 983,-99 989,-78"/>
<polygon style="fill:black;stroke:black;" points="992.471,-78.4922 991,-68 985.607,-77.1194 992.471,-78.4922"/>
<text text-anchor="middle" x="982" y="-113.9" style="font-family:Times New Roman;font-size:14.00;">1</text>
</g>
<!-- cell&#45;34&#45;&gt;prop&#45;36 -->
<g id="edge74" class="edge"><title>cell&#45;34&#45;&gt;prop&#45;36</title>
<path style="fill:none;stroke:black;" d="M984,-148C997,-136 1016,-118 1032,-101 1039,-93 1045,-84 1050,-76"/>
<polygon style="fill:black;stroke:black;" points="1052.8,-78.1 1056,-68 1047.2,-73.9 1052.8,-78.1"/>
<text text-anchor="middle" x="1026" y="-113.9" style="font-family:Times New Roman;font-size:14.00;">0</text>
</g>
<!-- cell&#45;28&#45;&gt;prop&#45;29 -->
<g id="edge52" class="edge"><title>cell&#45;28&#45;&gt;prop&#45;29</title>
<path style="fill:none;stroke:black;" d="M792,-146C787,-140 783,-134 780,-127 774,-111 773,-93 773,-78"/>
<polygon style="fill:black;stroke:black;" points="776.5,-78 773,-68 769.5,-78 776.5,-78"/>
<text text-anchor="middle" x="787" y="-113.9" style="font-family:Times New Roman;font-size:14.00;">1</text>
</g>
<!-- cell&#45;28&#45;&gt;prop&#45;30 -->
<g id="edge56" class="edge"><title>cell&#45;28&#45;&gt;prop&#45;30</title>
<path style="fill:none;stroke:black;" d="M809,-145C809,-134 811,-121 815,-109 818,-98 823,-86 829,-77"/>
<polygon style="fill:black;stroke:black;" points="832.203,-78.4414 834,-68 826.084,-75.0418 832.203,-78.4414"/>
<text text-anchor="middle" x="818" y="-113.9" style="font-family:Times New Roman;font-size:14.00;">0</text>
</g>
<!-- cell&#45;33&#45;&gt;prop&#45;32 -->
<g id="edge64" class="edge"><title>cell&#45;33&#45;&gt;prop&#45;32</title>
<path style="fill:none;stroke:black;" d="M1120,-150C1099,-138 1066,-118 1034,-109 1002,-99 988,-117 960,-101 950,-95 943,-86 937,-77"/>
<polygon style="fill:black;stroke:black;" points="939.916,-75.0418 932,-68 933.797,-78.4414 939.916,-75.0418"/>
<text text-anchor="middle" x="1084" y="-113.9" style="font-family:Times New Roman;font-size:14.00;">1</text>
</g>
<!-- cell&#45;33&#45;&gt;prop&#45;36 -->
<g id="edge76" class="edge"><title>cell&#45;33&#45;&gt;prop&#45;36</title>
<path style="fill:none;stroke:black;" d="M1131,-145C1126,-134 1120,-120 1113,-109 1106,-97 1097,-86 1090,-76"/>
<polygon style="fill:black;stroke:black;" points="1092.22,-73.221 1083,-68 1086.95,-77.8306 1092.22,-73.221"/>
<text text-anchor="middle" x="1125" y="-113.9" style="font-family:Times New Roman;font-size:14.00;">1</text>
</g>
<!-- cell&#45;33&#45;&gt;prop&#45;38 -->
<g id="edge80" class="edge"><title>cell&#45;33&#45;&gt;prop&#45;38</title>
<path style="fill:none;stroke:black;" d="M1137,-181C1136,-190 1135,-199 1134,-209"/>
<polygon style="fill:black;stroke:black;" points="1130.51,-208.701 1133,-219 1137.48,-209.398 1130.51,-208.701"/>
</g>
<!-- cell&#45;27&#45;&gt;prop&#45;26 -->
<g id="edge46" class="edge"><title>cell&#45;27&#45;&gt;prop&#45;26</title>
<path style="fill:none;stroke:black;" d="M877,-149C856,-133 823,-109 822,-109 787,-95 771,-119 738,-101 728,-96 721,-86 715,-77"/>
<polygon style="fill:black;stroke:black;" points="717.916,-75.0418 710,-68 711.797,-78.4414 717.916,-75.0418"/>
<text text-anchor="middle" x="851" y="-113.9" style="font-family:Times New Roman;font-size:14.00;">1</text>
</g>
<!-- cell&#45;27&#45;&gt;prop&#45;30 -->
<g id="edge58" class="edge"><title>cell&#45;27&#45;&gt;prop&#45;30</title>
<path style="fill:none;stroke:black;" d="M887,-145C879,-128 867,-99 858,-77"/>
<polygon style="fill:black;stroke:black;" points="861.26,-75.7166 854,-68 854.863,-78.5596 861.26,-75.7166"/>
<text text-anchor="middle" x="881" y="-113.9" style="font-family:Times New Roman;font-size:14.00;">1</text>
</g>
<!-- cell&#45;27&#45;&gt;prop&#45;32 -->
<g id="edge62" class="edge"><title>cell&#45;27&#45;&gt;prop&#45;32</title>
<path style="fill:none;stroke:black;" d="M900,-145C904,-127 911,-99 917,-78"/>
<polygon style="fill:black;stroke:black;" points="920.471,-78.4922 919,-68 913.607,-77.1194 920.471,-78.4922"/>
<text text-anchor="middle" x="910" y="-113.9" style="font-family:Times New Roman;font-size:14.00;">0</text>
</g>
<!-- cell&#45;27&#45;&gt;prop&#45;35 -->
<g id="edge68" class="edge"><title>cell&#45;27&#45;&gt;prop&#45;35</title>
<path style="fill:none;stroke:black;" d="M909,-147C920,-136 935,-121 949,-109 953,-105 955,-105 960,-101 967,-94 974,-85 980,-76"/>
<polygon style="fill:black;stroke:black;" points="982.668,-78.335 985,-68 976.732,-74.625 982.668,-78.335"/>
<text text-anchor="middle" x="952" y="-113.9" style="font-family:Times New Roman;font-size:14.00;">0</text>
</g>
<!-- cell&#45;16&#45;&gt;prop&#45;17 -->
<g id="edge16" class="edge"><title>cell&#45;16&#45;&gt;prop&#45;17</title>
<path style="fill:none;stroke:black;" d="M519,-145C519,-127 519,-99 519,-78"/>
<polygon style="fill:black;stroke:black;" points="522.5,-78 519,-68 515.5,-78 522.5,-78"/>
<text text-anchor="middle" x="523" y="-113.9" style="font-family:Times New Roman;font-size:14.00;">1</text>
</g>
<!-- cell&#45;16&#45;&gt;prop&#45;18 -->
<g id="edge20" class="edge"><title>cell&#45;16&#45;&gt;prop&#45;18</title>
<path style="fill:none;stroke:black;" d="M530,-145C542,-127 560,-98 574,-77"/>
<polygon style="fill:black;stroke:black;" points="577.203,-78.4414 579,-68 571.084,-75.0418 577.203,-78.4414"/>
<text text-anchor="middle" x="558" y="-113.9" style="font-family:Times New Roman;font-size:14.00;">0</text>
</g>
<!-- cell&#45;22&#45;&gt;prop&#45;23 -->
<g id="edge34" class="edge"><title>cell&#45;22&#45;&gt;prop&#45;23</title>
<path style="fill:none;stroke:black;" d="M143,-148C160,-141 179,-134 196,-127 213,-119 215,-113 232,-109 267,-99 282,-118 312,-101 322,-96 329,-86 335,-77"/>
<polygon style="fill:black;stroke:black;" points="338.203,-78.4414 340,-68 332.084,-75.0418 338.203,-78.4414"/>
<text text-anchor="middle" x="236" y="-113.9" style="font-family:Times New Roman;font-size:14.00;">1</text>
</g>
<!-- cell&#45;22&#45;&gt;prop&#45;24 -->
<g id="edge38" class="edge"><title>cell&#45;22&#45;&gt;prop&#45;24</title>
<path style="fill:none;stroke:black;" d="M122,-146C140,-133 165,-117 189,-109 211,-101 221,-113 240,-101 250,-95 257,-86 263,-77"/>
<polygon style="fill:black;stroke:black;" points="266.203,-78.4414 268,-68 260.084,-75.0418 266.203,-78.4414"/>
<text text-anchor="middle" x="193" y="-113.9" style="font-family:Times New Roman;font-size:14.00;">0</text>
</g>
<!-- cell&#45;21&#45;&gt;prop&#45;20 -->
<g id="edge26" class="edge"><title>cell&#45;21&#45;&gt;prop&#45;20</title>
<path style="fill:none;stroke:black;" d="M265,-145C253,-127 235,-98 221,-77"/>
<polygon style="fill:black;stroke:black;" points="223.916,-75.0418 216,-68 217.797,-78.4414 223.916,-75.0418"/>
<text text-anchor="middle" x="258" y="-113.9" style="font-family:Times New Roman;font-size:14.00;">0</text>
</g>
<!-- cell&#45;21&#45;&gt;prop&#45;23 -->
<g id="edge32" class="edge"><title>cell&#45;21&#45;&gt;prop&#45;23</title>
<path style="fill:none;stroke:black;" d="M286,-145C292,-134 300,-121 307,-109 314,-98 322,-87 329,-77"/>
<polygon style="fill:black;stroke:black;" points="332.365,-78.262 335,-68 326.541,-74.3791 332.365,-78.262"/>
<text text-anchor="middle" x="311" y="-113.9" style="font-family:Times New Roman;font-size:14.00;">0</text>
</g>
<!-- cell&#45;14&#45;&gt;prop&#45;13 -->
<g id="edge8" class="edge"><title>cell&#45;14&#45;&gt;prop&#45;13</title>
<path style="fill:none;stroke:black;" d="M647,-147C633,-141 617,-134 603,-127 587,-119 584,-113 565,-109 548,-104 499,-110 483,-101 474,-96 466,-86 460,-77"/>
<polygon style="fill:black;stroke:black;" points="462.916,-75.0418 455,-68 456.797,-78.4414 462.916,-75.0418"/>
<text text-anchor="middle" x="613" y="-113.9" style="font-family:Times New Roman;font-size:14.00;">0</text>
</g>
<!-- cell&#45;14&#45;&gt;prop&#45;17 -->
<g id="edge14" class="edge"><title>cell&#45;14&#45;&gt;prop&#45;17</title>
<path style="fill:none;stroke:black;" d="M660,-146C644,-131 622,-113 611,-109 588,-99 577,-114 555,-101 546,-95 539,-85 532,-76"/>
<polygon style="fill:black;stroke:black;" points="535.268,-74.625 527,-68 529.332,-78.335 535.268,-74.625"/>
<text text-anchor="middle" x="645" y="-113.9" style="font-family:Times New Roman;font-size:14.00;">0</text>
</g>
<!-- cell&#45;14&#45;&gt;prop&#45;26 -->
<g id="edge44" class="edge"><title>cell&#45;14&#45;&gt;prop&#45;26</title>
<path style="fill:none;stroke:black;" d="M680,-145C681,-134 682,-121 684,-109 686,-99 690,-87 693,-78"/>
<polygon style="fill:black;stroke:black;" points="696.479,-78.584 696,-68 689.774,-76.5725 696.479,-78.584"/>
<text text-anchor="middle" x="688" y="-113.9" style="font-family:Times New Roman;font-size:14.00;">0</text>
</g>
<!-- cell&#45;14&#45;&gt;prop&#45;29 -->
<g id="edge50" class="edge"><title>cell&#45;14&#45;&gt;prop&#45;29</title>
<path style="fill:none;stroke:black;" d="M693,-145C701,-134 713,-120 725,-109 731,-104 734,-105 738,-101 745,-94 752,-85 758,-77"/>
<polygon style="fill:black;stroke:black;" points="761.365,-78.262 764,-68 755.541,-74.3791 761.365,-78.262"/>
<text text-anchor="middle" x="729" y="-113.9" style="font-family:Times New Roman;font-size:14.00;">0</text>
</g>
<!-- cell&#45;39&#45;&gt;prop&#45;40 -->
<g id="edge84" class="edge"><title>cell&#45;39&#45;&gt;prop&#45;40</title>
<path style="fill:none;stroke:black;" d="M1055,-181C1056,-190 1056,-199 1057,-209"/>
<polygon style="fill:black;stroke:black;" points="1053.52,-209.398 1058,-219 1060.49,-208.701 1053.52,-209.398"/>
</g>
</g>
</svg>
