<?xml version="1.0" encoding="UTF-8" standalone="no"?>
<!DOCTYPE svg PUBLIC "-//W3C//DTD SVG 1.0//EN"
 "http://www.w3.org/TR/2001/REC-SVG-20010904/DTD/svg10.dtd" [
 <!ATTLIST svg xmlns:xlink CDATA #FIXED "http://www.w3.org/1999/xlink">
]>
<!-- Generated by Graphviz version 2.20.2 (Sun Oct 12 22:28:10 UTC 2008)
     For user: (axch) Alexey Radul -->
<!-- Title: G Pages: 1 -->
<svg width="208pt" height="675pt"
 viewBox="0.00 0.00 208.00 675.00" xmlns="http://www.w3.org/2000/svg" xmlns:xlink="http://www.w3.org/1999/xlink">
<g id="graph0" class="graph" transform="scale(1 1) rotate(0) translate(4 671)">
<title>G</title>
<polygon style="fill:white;stroke:white;" points="-4,4 -4,-671 204,-671 204,4 -4,4"/>
<g id="cluster2" class="cluster"><title>cluster_11</title>
<polygon style="fill:none;stroke:black;" points="8,-16 8,-659 192,-659 192,-16 8,-16"/>
<text text-anchor="middle" x="100" y="-642.9" style="font-family:Times New Roman;font-size:14.00;">top&#45;group</text>
</g>
<!-- prop&#45;12 -->
<g id="node2" class="node"><title>prop&#45;12</title>
<polygon style="fill:none;stroke:black;" points="118,-134 64,-134 64,-98 118,-98 118,-134"/>
<text text-anchor="middle" x="91" y="-111.9" style="font-family:Times New Roman;font-size:14.00;">/</text>
</g>
<!-- cell&#45;15 -->
<g id="node13" class="node"><title>cell&#45;15</title>
<ellipse style="fill:none;stroke:black;" cx="91" cy="-42" rx="27" ry="18"/>
<text text-anchor="middle" x="91" y="-37.9" style="font-family:Times New Roman;font-size:14.00;">c</text>
</g>
<!-- prop&#45;12&#45;&gt;cell&#45;15 -->
<g id="edge7" class="edge"><title>prop&#45;12&#45;&gt;cell&#45;15</title>
<path style="fill:none;stroke:black;" d="M91,-98C91,-89 91,-80 91,-70"/>
<polygon style="fill:black;stroke:black;" points="94.5001,-70 91,-60 87.5001,-70 94.5001,-70"/>
</g>
<!-- prop&#45;16 -->
<g id="node3" class="node"><title>prop&#45;16</title>
<polygon style="fill:none;stroke:black;" points="83,-298 29,-298 29,-262 83,-262 83,-298"/>
<text text-anchor="middle" x="56" y="-275.9" style="font-family:Times New Roman;font-size:14.00;">*</text>
</g>
<!-- cell&#45;13 -->
<g id="node11" class="node"><title>cell&#45;13</title>
<ellipse style="fill:none;stroke:black;" cx="65" cy="-206" rx="27" ry="18"/>
<text text-anchor="middle" x="65" y="-201.9" style="font-family:Times New Roman;font-size:14.00;">c*9</text>
</g>
<!-- prop&#45;16&#45;&gt;cell&#45;13 -->
<g id="edge13" class="edge"><title>prop&#45;16&#45;&gt;cell&#45;13</title>
<path style="fill:none;stroke:black;" d="M58,-262C59,-253 60,-243 62,-234"/>
<polygon style="fill:black;stroke:black;" points="65.4875,-234.299 63,-224 58.5222,-233.602 65.4875,-234.299"/>
</g>
<!-- prop&#45;19 -->
<g id="node4" class="node"><title>prop&#45;19</title>
<polygon style="fill:none;stroke:black;" points="80,-462 26,-462 26,-426 80,-426 80,-462"/>
<text text-anchor="middle" x="53" y="-439.9" style="font-family:Times New Roman;font-size:14.00;">&#45;</text>
</g>
<!-- cell&#45;17 -->
<g id="node9" class="node"><title>cell&#45;17</title>
<ellipse style="fill:none;stroke:black;" cx="56" cy="-370" rx="27.1004" ry="18"/>
<text text-anchor="middle" x="56" y="-365.9" style="font-family:Times New Roman;font-size:14.00;">f&#45;32</text>
</g>
<!-- prop&#45;19&#45;&gt;cell&#45;17 -->
<g id="edge19" class="edge"><title>prop&#45;19&#45;&gt;cell&#45;17</title>
<path style="fill:none;stroke:black;" d="M54,-426C55,-417 55,-408 55,-398"/>
<polygon style="fill:black;stroke:black;" points="58.5001,-398 55,-388 51.5001,-398 58.5001,-398"/>
</g>
<!-- prop&#45;22 -->
<g id="node5" class="node"><title>prop&#45;22</title>
<polygon style="fill:none;stroke:black;" points="183,-298 101,-298 101,-262 183,-262 183,-298"/>
<text text-anchor="middle" x="142" y="-275.9" style="font-family:Times New Roman;font-size:14.00;">(constant 9)</text>
</g>
<!-- cell&#45;14 -->
<g id="node12" class="node"><title>cell&#45;14</title>
<ellipse style="fill:none;stroke:black;" cx="138" cy="-206" rx="27.1004" ry="18"/>
<text text-anchor="middle" x="138" y="-201.9" style="font-family:Times New Roman;font-size:14.00;">nine</text>
</g>
<!-- prop&#45;22&#45;&gt;cell&#45;14 -->
<g id="edge21" class="edge"><title>prop&#45;22&#45;&gt;cell&#45;14</title>
<path style="fill:none;stroke:black;" d="M141,-262C140,-253 140,-244 140,-234"/>
<polygon style="fill:black;stroke:black;" points="143.478,-233.602 139,-224 136.512,-234.299 143.478,-233.602"/>
</g>
<!-- prop&#45;23 -->
<g id="node6" class="node"><title>prop&#45;23</title>
<polygon style="fill:none;stroke:black;" points="180,-462 98,-462 98,-426 180,-426 180,-462"/>
<text text-anchor="middle" x="139" y="-439.9" style="font-family:Times New Roman;font-size:14.00;">(constant 5)</text>
</g>
<!-- cell&#45;18 -->
<g id="node10" class="node"><title>cell&#45;18</title>
<ellipse style="fill:none;stroke:black;" cx="130" cy="-370" rx="27" ry="18"/>
<text text-anchor="middle" x="130" y="-365.9" style="font-family:Times New Roman;font-size:14.00;">five</text>
</g>
<!-- prop&#45;23&#45;&gt;cell&#45;18 -->
<g id="edge23" class="edge"><title>prop&#45;23&#45;&gt;cell&#45;18</title>
<path style="fill:none;stroke:black;" d="M137,-426C136,-417 135,-407 133,-398"/>
<polygon style="fill:black;stroke:black;" points="136.478,-397.602 132,-388 129.512,-398.299 136.478,-397.602"/>
</g>
<!-- prop&#45;24 -->
<g id="node7" class="node"><title>prop&#45;24</title>
<polygon style="fill:none;stroke:black;" points="181,-626 91,-626 91,-590 181,-590 181,-626"/>
<text text-anchor="middle" x="136" y="-603.9" style="font-family:Times New Roman;font-size:14.00;">(constant 32)</text>
</g>
<!-- cell&#45;21 -->
<g id="node8" class="node"><title>cell&#45;21</title>
<ellipse style="fill:none;stroke:black;" cx="136" cy="-534" rx="48.1403" ry="18"/>
<text text-anchor="middle" x="136" y="-529.9" style="font-family:Times New Roman;font-size:14.00;">thirty&#45;two</text>
</g>
<!-- prop&#45;24&#45;&gt;cell&#45;21 -->
<g id="edge25" class="edge"><title>prop&#45;24&#45;&gt;cell&#45;21</title>
<path style="fill:none;stroke:black;" d="M136,-590C136,-581 136,-572 136,-562"/>
<polygon style="fill:black;stroke:black;" points="139.5,-562 136,-552 132.5,-562 139.5,-562"/>
</g>
<!-- cell&#45;21&#45;&gt;prop&#45;19 -->
<g id="edge17" class="edge"><title>cell&#45;21&#45;&gt;prop&#45;19</title>
<path style="fill:none;stroke:black;" d="M120,-517C108,-503 91,-485 77,-470"/>
<polygon style="fill:black;stroke:black;" points="79.2191,-467.221 70,-462 73.9511,-471.831 79.2191,-467.221"/>
<text text-anchor="middle" x="103" y="-484.9" style="font-family:Times New Roman;font-size:14.00;">1</text>
</g>
<!-- cell&#45;17&#45;&gt;prop&#45;16 -->
<g id="edge9" class="edge"><title>cell&#45;17&#45;&gt;prop&#45;16</title>
<path style="fill:none;stroke:black;" d="M56,-352C56,-339 56,-323 56,-308"/>
<polygon style="fill:black;stroke:black;" points="59.5001,-308 56,-298 52.5001,-308 59.5001,-308"/>
<text text-anchor="middle" x="60" y="-320.9" style="font-family:Times New Roman;font-size:14.00;">0</text>
</g>
<!-- cell&#45;18&#45;&gt;prop&#45;16 -->
<g id="edge11" class="edge"><title>cell&#45;18&#45;&gt;prop&#45;16</title>
<path style="fill:none;stroke:black;" d="M117,-354C106,-341 90,-321 78,-306"/>
<polygon style="fill:black;stroke:black;" points="80.2191,-303.221 71,-298 74.9511,-307.831 80.2191,-303.221"/>
<text text-anchor="middle" x="101" y="-320.9" style="font-family:Times New Roman;font-size:14.00;">1</text>
</g>
<!-- cell&#45;13&#45;&gt;prop&#45;12 -->
<g id="edge3" class="edge"><title>cell&#45;13&#45;&gt;prop&#45;12</title>
<path style="fill:none;stroke:black;" d="M70,-188C74,-175 79,-158 83,-144"/>
<polygon style="fill:black;stroke:black;" points="86.4788,-144.584 86,-134 79.7741,-142.573 86.4788,-144.584"/>
<text text-anchor="middle" x="82" y="-156.9" style="font-family:Times New Roman;font-size:14.00;">0</text>
</g>
<!-- cell&#45;14&#45;&gt;prop&#45;12 -->
<g id="edge5" class="edge"><title>cell&#45;14&#45;&gt;prop&#45;12</title>
<path style="fill:none;stroke:black;" d="M129,-189C122,-176 113,-158 105,-143"/>
<polygon style="fill:black;stroke:black;" points="107.916,-141.042 100,-134 101.797,-144.441 107.916,-141.042"/>
<text text-anchor="middle" x="120" y="-156.9" style="font-family:Times New Roman;font-size:14.00;">1</text>
</g>
<!-- cell&#45;20 -->
<g id="node14" class="node"><title>cell&#45;20</title>
<ellipse style="fill:none;stroke:black;" cx="43" cy="-534" rx="27" ry="18"/>
<text text-anchor="middle" x="43" y="-529.9" style="font-family:Times New Roman;font-size:14.00;">f</text>
</g>
<!-- cell&#45;20&#45;&gt;prop&#45;19 -->
<g id="edge15" class="edge"><title>cell&#45;20&#45;&gt;prop&#45;19</title>
<path style="fill:none;stroke:black;" d="M45,-516C47,-503 48,-486 50,-472"/>
<polygon style="fill:black;stroke:black;" points="53.4875,-472.299 51,-462 46.5222,-471.602 53.4875,-472.299"/>
<text text-anchor="middle" x="54" y="-484.9" style="font-family:Times New Roman;font-size:14.00;">0</text>
</g>
</g>
</svg>
