<?xml version="1.0" encoding="UTF-8" standalone="no"?>
<!DOCTYPE svg PUBLIC "-//W3C//DTD SVG 1.0//EN"
 "http://www.w3.org/TR/2001/REC-SVG-20010904/DTD/svg10.dtd" [
 <!ATTLIST svg xmlns:xlink CDATA #FIXED "http://www.w3.org/1999/xlink">
]>
<!-- Generated by Graphviz version 2.20.2 (Sun Oct 12 22:28:10 UTC 2008)
     For user: (axch) Alexey Radul -->
<!-- Title: G Pages: 1 -->
<svg width="920pt" height="304pt"
 viewBox="0.00 0.00 920.00 304.00" xmlns="http://www.w3.org/2000/svg" xmlns:xlink="http://www.w3.org/1999/xlink">
<g id="graph0" class="graph" transform="scale(1 1) rotate(0) translate(4 300)">
<title>G</title>
<polygon style="fill:white;stroke:white;" points="-4,4 -4,-300 916,-300 916,4 -4,4"/>
<g id="cluster2" class="cluster"><title>cluster_11</title>
<polygon style="fill:none;stroke:black;" points="8,-16 8,-288 904,-288 904,-16 8,-16"/>
<text text-anchor="middle" x="456" y="-271.9" style="font-family:Times New Roman;font-size:14.00;">top&#45;group</text>
</g>
<g id="cluster3" class="cluster"><title>cluster_12</title>
<polygon style="fill:none;stroke:black;" points="238,-24 238,-101 452,-101 452,-24 238,-24"/>
<text text-anchor="middle" x="345" y="-84.9" style="font-family:Times New Roman;font-size:14.00;">sum&#45;constraint</text>
</g>
<g id="cluster4" class="cluster"><title>cluster_20</title>
<polygon style="fill:none;stroke:black;" points="682,-24 682,-101 896,-101 896,-24 682,-24"/>
<text text-anchor="middle" x="789" y="-84.9" style="font-family:Times New Roman;font-size:14.00;">product&#45;constraint</text>
</g>
<g id="cluster5" class="cluster"><title>cluster_26</title>
<polygon style="fill:none;stroke:black;" points="460,-24 460,-101 674,-101 674,-24 460,-24"/>
<text text-anchor="middle" x="567" y="-84.9" style="font-family:Times New Roman;font-size:14.00;">product&#45;constraint</text>
</g>
<g id="cluster6" class="cluster"><title>cluster_32</title>
<polygon style="fill:none;stroke:black;" points="16,-24 16,-101 230,-101 230,-24 16,-24"/>
<text text-anchor="middle" x="123" y="-84.9" style="font-family:Times New Roman;font-size:14.00;">sum&#45;constraint</text>
</g>
<!-- prop&#45;13 -->
<g id="node3" class="node"><title>prop&#45;13</title>
<polygon style="fill:none;stroke:black;" points="444,-68 390,-68 390,-32 444,-32 444,-68"/>
<text text-anchor="middle" x="417" y="-45.9" style="font-family:Times New Roman;font-size:14.00;">&#45;</text>
</g>
<!-- cell&#45;16 -->
<g id="node29" class="node"><title>cell&#45;16</title>
<ellipse style="fill:none;stroke:black;" cx="518" cy="-163" rx="27" ry="18"/>
<text text-anchor="middle" x="518" y="-158.9" style="font-family:Times New Roman;font-size:14.00;">c</text>
</g>
<!-- prop&#45;13&#45;&gt;cell&#45;16 -->
<g id="edge11" class="edge"><title>prop&#45;13&#45;&gt;cell&#45;16</title>
<path style="fill:none;stroke:black;" d="M426,-68C433,-79 443,-93 456,-101 474,-111 486,-95 501,-109 506,-113 510,-124 513,-135"/>
<polygon style="fill:black;stroke:black;" points="509.607,-135.881 515,-145 516.471,-134.508 509.607,-135.881"/>
</g>
<!-- prop&#45;17 -->
<g id="node4" class="node"><title>prop&#45;17</title>
<polygon style="fill:none;stroke:black;" points="372,-68 318,-68 318,-32 372,-32 372,-68"/>
<text text-anchor="middle" x="345" y="-45.9" style="font-family:Times New Roman;font-size:14.00;">&#45;</text>
</g>
<!-- cell&#45;15 -->
<g id="node7" class="node"><title>cell&#45;15</title>
<ellipse style="fill:none;stroke:black;" cx="409" cy="-163" rx="31.9646" ry="18"/>
<text text-anchor="middle" x="409" y="-158.9" style="font-family:Times New Roman;font-size:14.00;">many</text>
</g>
<!-- prop&#45;17&#45;&gt;cell&#45;15 -->
<g id="edge17" class="edge"><title>prop&#45;17&#45;&gt;cell&#45;15</title>
<path style="fill:none;stroke:black;" d="M354,-68C360,-79 370,-92 381,-101 390,-107 398,-100 404,-109 410,-116 412,-126 412,-135"/>
<polygon style="fill:black;stroke:black;" points="408.5,-135 412,-145 415.5,-135 408.5,-135"/>
</g>
<!-- prop&#45;18 -->
<g id="node5" class="node"><title>prop&#45;18</title>
<polygon style="fill:none;stroke:black;" points="300,-68 246,-68 246,-32 300,-32 300,-68"/>
<text text-anchor="middle" x="273" y="-45.9" style="font-family:Times New Roman;font-size:14.00;">+</text>
</g>
<!-- cell&#45;14 -->
<g id="node28" class="node"><title>cell&#45;14</title>
<ellipse style="fill:none;stroke:black;" cx="232" cy="-163" rx="27" ry="18"/>
<text text-anchor="middle" x="232" y="-158.9" style="font-family:Times New Roman;font-size:14.00;">k</text>
</g>
<!-- prop&#45;18&#45;&gt;cell&#45;14 -->
<g id="edge23" class="edge"><title>prop&#45;18&#45;&gt;cell&#45;14</title>
<path style="fill:none;stroke:black;" d="M264,-68C257,-79 247,-93 234,-101 215,-112 198,-91 183,-109 172,-122 186,-136 201,-146"/>
<polygon style="fill:black;stroke:black;" points="199.738,-149.365 210,-152 203.621,-143.541 199.738,-149.365"/>
</g>
<!-- prop&#45;19 -->
<g id="node6" class="node"><title>prop&#45;19</title>
<polygon style="fill:none;stroke:black;" points="466,-255 352,-255 352,-219 466,-219 466,-255"/>
<text text-anchor="middle" x="409" y="-232.9" style="font-family:Times New Roman;font-size:14.00;">(constant 273.15)</text>
</g>
<!-- prop&#45;19&#45;&gt;cell&#45;15 -->
<g id="edge25" class="edge"><title>prop&#45;19&#45;&gt;cell&#45;15</title>
<path style="fill:none;stroke:black;" d="M409,-219C409,-210 409,-201 409,-191"/>
<polygon style="fill:black;stroke:black;" points="412.5,-191 409,-181 405.5,-191 412.5,-191"/>
</g>
<!-- cell&#45;15&#45;&gt;prop&#45;13 -->
<g id="edge9" class="edge"><title>cell&#45;15&#45;&gt;prop&#45;13</title>
<path style="fill:none;stroke:black;" d="M410,-145C412,-127 413,-99 415,-78"/>
<polygon style="fill:black;stroke:black;" points="418.488,-78.2987 416,-68 411.522,-77.6021 418.488,-78.2987"/>
<text text-anchor="middle" x="417" y="-113.9" style="font-family:Times New Roman;font-size:14.00;">1</text>
</g>
<!-- cell&#45;15&#45;&gt;prop&#45;18 -->
<g id="edge21" class="edge"><title>cell&#45;15&#45;&gt;prop&#45;18</title>
<path style="fill:none;stroke:black;" d="M401,-145C395,-133 384,-117 370,-109 347,-94 333,-115 309,-101 300,-95 293,-85 286,-76"/>
<polygon style="fill:black;stroke:black;" points="289.268,-74.625 281,-68 283.332,-78.335 289.268,-74.625"/>
<text text-anchor="middle" x="397" y="-113.9" style="font-family:Times New Roman;font-size:14.00;">1</text>
</g>
<!-- prop&#45;21 -->
<g id="node9" class="node"><title>prop&#45;21</title>
<polygon style="fill:none;stroke:black;" points="816,-68 762,-68 762,-32 816,-32 816,-68"/>
<text text-anchor="middle" x="789" y="-45.9" style="font-family:Times New Roman;font-size:14.00;">/</text>
</g>
<!-- prop&#45;21&#45;&gt;cell&#45;16 -->
<g id="edge31" class="edge"><title>prop&#45;21&#45;&gt;cell&#45;16</title>
<path style="fill:none;stroke:black;" d="M781,-68C776,-80 766,-94 753,-101 733,-111 568,-97 548,-109 548,-109 540,-123 532,-137"/>
<polygon style="fill:black;stroke:black;" points="528.797,-135.559 527,-146 534.916,-138.958 528.797,-135.559"/>
</g>
<!-- prop&#45;24 -->
<g id="node10" class="node"><title>prop&#45;24</title>
<polygon style="fill:none;stroke:black;" points="888,-68 834,-68 834,-32 888,-32 888,-68"/>
<text text-anchor="middle" x="861" y="-45.9" style="font-family:Times New Roman;font-size:14.00;">/</text>
</g>
<!-- cell&#45;23 -->
<g id="node27" class="node"><title>cell&#45;23</title>
<ellipse style="fill:none;stroke:black;" cx="828" cy="-163" rx="27.1004" ry="18"/>
<text text-anchor="middle" x="828" y="-158.9" style="font-family:Times New Roman;font-size:14.00;">nine</text>
</g>
<!-- prop&#45;24&#45;&gt;cell&#45;23 -->
<g id="edge37" class="edge"><title>prop&#45;24&#45;&gt;cell&#45;23</title>
<path style="fill:none;stroke:black;" d="M856,-68C851,-84 845,-106 839,-127 838,-130 837,-133 836,-135"/>
<polygon style="fill:black;stroke:black;" points="832.521,-134.416 833,-145 839.226,-136.427 832.521,-134.416"/>
</g>
<!-- prop&#45;25 -->
<g id="node11" class="node"><title>prop&#45;25</title>
<polygon style="fill:none;stroke:black;" points="744,-68 690,-68 690,-32 744,-32 744,-68"/>
<text text-anchor="middle" x="717" y="-45.9" style="font-family:Times New Roman;font-size:14.00;">*</text>
</g>
<!-- cell&#45;22 -->
<g id="node26" class="node"><title>cell&#45;22</title>
<ellipse style="fill:none;stroke:black;" cx="707" cy="-163" rx="27" ry="18"/>
<text text-anchor="middle" x="707" y="-158.9" style="font-family:Times New Roman;font-size:14.00;">c*9</text>
</g>
<!-- prop&#45;25&#45;&gt;cell&#45;22 -->
<g id="edge43" class="edge"><title>prop&#45;25&#45;&gt;cell&#45;22</title>
<path style="fill:none;stroke:black;" d="M715,-68C713,-86 711,-114 710,-135"/>
<polygon style="fill:black;stroke:black;" points="706.512,-134.701 709,-145 713.478,-135.398 706.512,-134.701"/>
</g>
<!-- prop&#45;27 -->
<g id="node13" class="node"><title>prop&#45;27</title>
<polygon style="fill:none;stroke:black;" points="666,-68 612,-68 612,-32 666,-32 666,-68"/>
<text text-anchor="middle" x="639" y="-45.9" style="font-family:Times New Roman;font-size:14.00;">/</text>
</g>
<!-- cell&#45;29 -->
<g id="node24" class="node"><title>cell&#45;29</title>
<ellipse style="fill:none;stroke:black;" cx="317" cy="-163" rx="27.1004" ry="18"/>
<text text-anchor="middle" x="317" y="-158.9" style="font-family:Times New Roman;font-size:14.00;">f&#45;32</text>
</g>
<!-- prop&#45;27&#45;&gt;cell&#45;29 -->
<g id="edge49" class="edge"><title>prop&#45;27&#45;&gt;cell&#45;29</title>
<path style="fill:none;stroke:black;" d="M631,-68C626,-80 616,-94 603,-101 581,-112 399,-95 377,-109 370,-113 374,-120 367,-127 361,-133 354,-140 347,-145"/>
<polygon style="fill:black;stroke:black;" points="344.379,-142.541 338,-151 348.262,-148.365 344.379,-142.541"/>
</g>
<!-- prop&#45;30 -->
<g id="node14" class="node"><title>prop&#45;30</title>
<polygon style="fill:none;stroke:black;" points="594,-68 540,-68 540,-32 594,-32 594,-68"/>
<text text-anchor="middle" x="567" y="-45.9" style="font-family:Times New Roman;font-size:14.00;">/</text>
</g>
<!-- cell&#45;28 -->
<g id="node25" class="node"><title>cell&#45;28</title>
<ellipse style="fill:none;stroke:black;" cx="610" cy="-163" rx="27" ry="18"/>
<text text-anchor="middle" x="610" y="-158.9" style="font-family:Times New Roman;font-size:14.00;">five</text>
</g>
<!-- prop&#45;30&#45;&gt;cell&#45;28 -->
<g id="edge55" class="edge"><title>prop&#45;30&#45;&gt;cell&#45;28</title>
<path style="fill:none;stroke:black;" d="M582,-68C590,-79 600,-94 605,-109 608,-117 609,-126 610,-135"/>
<polygon style="fill:black;stroke:black;" points="606.522,-135.398 611,-145 613.488,-134.701 606.522,-135.398"/>
</g>
<!-- prop&#45;31 -->
<g id="node15" class="node"><title>prop&#45;31</title>
<polygon style="fill:none;stroke:black;" points="522,-68 468,-68 468,-32 522,-32 522,-68"/>
<text text-anchor="middle" x="495" y="-45.9" style="font-family:Times New Roman;font-size:14.00;">*</text>
</g>
<!-- prop&#45;31&#45;&gt;cell&#45;22 -->
<g id="edge61" class="edge"><title>prop&#45;31&#45;&gt;cell&#45;22</title>
<path style="fill:none;stroke:black;" d="M503,-68C509,-80 518,-94 531,-101 552,-112 616,-98 636,-109 646,-113 644,-120 652,-127 660,-134 669,-140 678,-146"/>
<polygon style="fill:black;stroke:black;" points="676.559,-149.203 687,-151 679.958,-143.084 676.559,-149.203"/>
</g>
<!-- prop&#45;33 -->
<g id="node17" class="node"><title>prop&#45;33</title>
<polygon style="fill:none;stroke:black;" points="150,-68 96,-68 96,-32 150,-32 150,-68"/>
<text text-anchor="middle" x="123" y="-45.9" style="font-family:Times New Roman;font-size:14.00;">&#45;</text>
</g>
<!-- cell&#45;35 -->
<g id="node23" class="node"><title>cell&#45;35</title>
<ellipse style="fill:none;stroke:black;" cx="139" cy="-163" rx="48.1403" ry="18"/>
<text text-anchor="middle" x="139" y="-158.9" style="font-family:Times New Roman;font-size:14.00;">thirty&#45;two</text>
</g>
<!-- prop&#45;33&#45;&gt;cell&#45;35 -->
<g id="edge67" class="edge"><title>prop&#45;33&#45;&gt;cell&#45;35</title>
<path style="fill:none;stroke:black;" d="M127,-68C130,-80 132,-95 134,-109 135,-118 136,-127 137,-135"/>
<polygon style="fill:black;stroke:black;" points="133.522,-135.398 138,-145 140.488,-134.701 133.522,-135.398"/>
</g>
<!-- prop&#45;36 -->
<g id="node18" class="node"><title>prop&#45;36</title>
<polygon style="fill:none;stroke:black;" points="222,-68 168,-68 168,-32 222,-32 222,-68"/>
<text text-anchor="middle" x="195" y="-45.9" style="font-family:Times New Roman;font-size:14.00;">&#45;</text>
</g>
<!-- prop&#45;36&#45;&gt;cell&#45;29 -->
<g id="edge73" class="edge"><title>prop&#45;36&#45;&gt;cell&#45;29</title>
<path style="fill:none;stroke:black;" d="M204,-68C211,-79 221,-93 234,-101 260,-115 278,-90 300,-109 305,-113 309,-124 312,-135"/>
<polygon style="fill:black;stroke:black;" points="308.607,-135.881 314,-145 315.471,-134.508 308.607,-135.881"/>
</g>
<!-- prop&#45;37 -->
<g id="node19" class="node"><title>prop&#45;37</title>
<polygon style="fill:none;stroke:black;" points="78,-68 24,-68 24,-32 78,-32 78,-68"/>
<text text-anchor="middle" x="51" y="-45.9" style="font-family:Times New Roman;font-size:14.00;">+</text>
</g>
<!-- cell&#45;34 -->
<g id="node30" class="node"><title>cell&#45;34</title>
<ellipse style="fill:none;stroke:black;" cx="46" cy="-163" rx="27" ry="18"/>
<text text-anchor="middle" x="46" y="-158.9" style="font-family:Times New Roman;font-size:14.00;">f</text>
</g>
<!-- prop&#45;37&#45;&gt;cell&#45;34 -->
<g id="edge79" class="edge"><title>prop&#45;37&#45;&gt;cell&#45;34</title>
<path style="fill:none;stroke:black;" d="M50,-68C49,-80 48,-95 47,-109 46,-117 46,-126 46,-135"/>
<polygon style="fill:black;stroke:black;" points="42.5001,-135 46,-145 49.5001,-135 42.5001,-135"/>
</g>
<!-- prop&#45;38 -->
<g id="node20" class="node"><title>prop&#45;38</title>
<polygon style="fill:none;stroke:black;" points="869,-255 787,-255 787,-219 869,-219 869,-255"/>
<text text-anchor="middle" x="828" y="-232.9" style="font-family:Times New Roman;font-size:14.00;">(constant 9)</text>
</g>
<!-- prop&#45;38&#45;&gt;cell&#45;23 -->
<g id="edge81" class="edge"><title>prop&#45;38&#45;&gt;cell&#45;23</title>
<path style="fill:none;stroke:black;" d="M828,-219C828,-210 828,-201 828,-191"/>
<polygon style="fill:black;stroke:black;" points="831.5,-191 828,-181 824.5,-191 831.5,-191"/>
</g>
<!-- prop&#45;39 -->
<g id="node21" class="node"><title>prop&#45;39</title>
<polygon style="fill:none;stroke:black;" points="651,-255 569,-255 569,-219 651,-219 651,-255"/>
<text text-anchor="middle" x="610" y="-232.9" style="font-family:Times New Roman;font-size:14.00;">(constant 5)</text>
</g>
<!-- prop&#45;39&#45;&gt;cell&#45;28 -->
<g id="edge83" class="edge"><title>prop&#45;39&#45;&gt;cell&#45;28</title>
<path style="fill:none;stroke:black;" d="M610,-219C610,-210 610,-201 610,-191"/>
<polygon style="fill:black;stroke:black;" points="613.5,-191 610,-181 606.5,-191 613.5,-191"/>
</g>
<!-- prop&#45;40 -->
<g id="node22" class="node"><title>prop&#45;40</title>
<polygon style="fill:none;stroke:black;" points="184,-255 94,-255 94,-219 184,-219 184,-255"/>
<text text-anchor="middle" x="139" y="-232.9" style="font-family:Times New Roman;font-size:14.00;">(constant 32)</text>
</g>
<!-- prop&#45;40&#45;&gt;cell&#45;35 -->
<g id="edge85" class="edge"><title>prop&#45;40&#45;&gt;cell&#45;35</title>
<path style="fill:none;stroke:black;" d="M139,-219C139,-210 139,-201 139,-191"/>
<polygon style="fill:black;stroke:black;" points="142.5,-191 139,-181 135.5,-191 142.5,-191"/>
</g>
<!-- cell&#45;35&#45;&gt;prop&#45;36 -->
<g id="edge71" class="edge"><title>cell&#45;35&#45;&gt;prop&#45;36</title>
<path style="fill:none;stroke:black;" d="M148,-145C158,-127 172,-98 182,-77"/>
<polygon style="fill:black;stroke:black;" points="185.137,-78.5596 186,-68 178.74,-75.7166 185.137,-78.5596"/>
<text text-anchor="middle" x="170" y="-113.9" style="font-family:Times New Roman;font-size:14.00;">1</text>
</g>
<!-- cell&#45;35&#45;&gt;prop&#45;37 -->
<g id="edge75" class="edge"><title>cell&#45;35&#45;&gt;prop&#45;37</title>
<path style="fill:none;stroke:black;" d="M131,-145C125,-133 116,-119 104,-109 98,-103 94,-106 87,-101 79,-94 72,-85 66,-77"/>
<polygon style="fill:black;stroke:black;" points="68.916,-75.0418 61,-68 62.7969,-78.4414 68.916,-75.0418"/>
<text text-anchor="middle" x="126" y="-113.9" style="font-family:Times New Roman;font-size:14.00;">0</text>
</g>
<!-- cell&#45;29&#45;&gt;prop&#45;30 -->
<g id="edge53" class="edge"><title>cell&#45;29&#45;&gt;prop&#45;30</title>
<path style="fill:none;stroke:black;" d="M326,-146C334,-133 346,-116 362,-109 396,-92 499,-119 531,-101 541,-96 549,-86 555,-77"/>
<polygon style="fill:black;stroke:black;" points="558.137,-78.5596 559,-68 551.74,-75.7166 558.137,-78.5596"/>
<text text-anchor="middle" x="366" y="-113.9" style="font-family:Times New Roman;font-size:14.00;">1</text>
</g>
<!-- cell&#45;29&#45;&gt;prop&#45;31 -->
<g id="edge57" class="edge"><title>cell&#45;29&#45;&gt;prop&#45;31</title>
<path style="fill:none;stroke:black;" d="M317,-145C318,-133 322,-117 332,-109 354,-91 432,-114 456,-101 467,-96 475,-86 481,-77"/>
<polygon style="fill:black;stroke:black;" points="484.203,-78.4414 486,-68 478.084,-75.0418 484.203,-78.4414"/>
<text text-anchor="middle" x="336" y="-113.9" style="font-family:Times New Roman;font-size:14.00;">0</text>
</g>
<!-- cell&#45;29&#45;&gt;prop&#45;33 -->
<g id="edge65" class="edge"><title>cell&#45;29&#45;&gt;prop&#45;33</title>
<path style="fill:none;stroke:black;" d="M308,-146C300,-133 287,-117 270,-109 248,-97 181,-113 159,-101 149,-96 142,-86 136,-77"/>
<polygon style="fill:black;stroke:black;" points="138.916,-75.0418 131,-68 132.797,-78.4414 138.916,-75.0418"/>
<text text-anchor="middle" x="299" y="-113.9" style="font-family:Times New Roman;font-size:14.00;">1</text>
</g>
<!-- cell&#45;29&#45;&gt;prop&#45;37 -->
<g id="edge77" class="edge"><title>cell&#45;29&#45;&gt;prop&#45;37</title>
<path style="fill:none;stroke:black;" d="M298,-150C288,-143 276,-135 265,-127 254,-119 253,-113 240,-109 208,-97 117,-117 87,-101 77,-96 70,-86 64,-77"/>
<polygon style="fill:black;stroke:black;" points="66.916,-75.0418 59,-68 60.7969,-78.4414 66.916,-75.0418"/>
<text text-anchor="middle" x="272" y="-113.9" style="font-family:Times New Roman;font-size:14.00;">1</text>
</g>
<!-- cell&#45;28&#45;&gt;prop&#45;27 -->
<g id="edge47" class="edge"><title>cell&#45;28&#45;&gt;prop&#45;27</title>
<path style="fill:none;stroke:black;" d="M615,-145C619,-127 626,-99 632,-78"/>
<polygon style="fill:black;stroke:black;" points="635.471,-78.4922 634,-68 628.607,-77.1194 635.471,-78.4922"/>
<text text-anchor="middle" x="629" y="-113.9" style="font-family:Times New Roman;font-size:14.00;">1</text>
</g>
<!-- cell&#45;28&#45;&gt;prop&#45;31 -->
<g id="edge59" class="edge"><title>cell&#45;28&#45;&gt;prop&#45;31</title>
<path style="fill:none;stroke:black;" d="M603,-145C598,-133 588,-117 575,-109 559,-97 548,-111 531,-101 522,-95 515,-85 508,-76"/>
<polygon style="fill:black;stroke:black;" points="511.268,-74.625 503,-68 505.332,-78.335 511.268,-74.625"/>
<text text-anchor="middle" x="600" y="-113.9" style="font-family:Times New Roman;font-size:14.00;">1</text>
</g>
<!-- cell&#45;22&#45;&gt;prop&#45;21 -->
<g id="edge27" class="edge"><title>cell&#45;22&#45;&gt;prop&#45;21</title>
<path style="fill:none;stroke:black;" d="M716,-146C722,-134 731,-120 741,-109 746,-104 749,-105 753,-101 760,-94 767,-85 773,-76"/>
<polygon style="fill:black;stroke:black;" points="775.668,-78.335 778,-68 769.732,-74.625 775.668,-78.335"/>
<text text-anchor="middle" x="745" y="-113.9" style="font-family:Times New Roman;font-size:14.00;">0</text>
</g>
<!-- cell&#45;22&#45;&gt;prop&#45;24 -->
<g id="edge33" class="edge"><title>cell&#45;22&#45;&gt;prop&#45;24</title>
<path style="fill:none;stroke:black;" d="M723,-148C738,-134 761,-113 771,-109 794,-99 805,-113 825,-101 834,-95 841,-85 848,-76"/>
<polygon style="fill:black;stroke:black;" points="850.668,-78.335 853,-68 844.732,-74.625 850.668,-78.335"/>
<text text-anchor="middle" x="775" y="-113.9" style="font-family:Times New Roman;font-size:14.00;">0</text>
</g>
<!-- cell&#45;22&#45;&gt;prop&#45;27 -->
<g id="edge45" class="edge"><title>cell&#45;22&#45;&gt;prop&#45;27</title>
<path style="fill:none;stroke:black;" d="M699,-146C693,-135 686,-121 679,-109 673,-98 665,-87 658,-76"/>
<polygon style="fill:black;stroke:black;" points="660.8,-73.9 652,-68 655.2,-78.1 660.8,-73.9"/>
<text text-anchor="middle" x="695" y="-113.9" style="font-family:Times New Roman;font-size:14.00;">0</text>
</g>
<!-- cell&#45;22&#45;&gt;prop&#45;30 -->
<g id="edge51" class="edge"><title>cell&#45;22&#45;&gt;prop&#45;30</title>
<path style="fill:none;stroke:black;" d="M693,-147C679,-133 659,-113 649,-109 631,-99 621,-112 603,-101 594,-95 587,-85 580,-76"/>
<polygon style="fill:black;stroke:black;" points="583.268,-74.625 575,-68 577.332,-78.335 583.268,-74.625"/>
<text text-anchor="middle" x="679" y="-113.9" style="font-family:Times New Roman;font-size:14.00;">0</text>
</g>
<!-- cell&#45;23&#45;&gt;prop&#45;21 -->
<g id="edge29" class="edge"><title>cell&#45;23&#45;&gt;prop&#45;21</title>
<path style="fill:none;stroke:black;" d="M822,-145C816,-128 806,-99 798,-78"/>
<polygon style="fill:black;stroke:black;" points="801.226,-76.5725 795,-68 794.521,-78.584 801.226,-76.5725"/>
<text text-anchor="middle" x="818" y="-113.9" style="font-family:Times New Roman;font-size:14.00;">1</text>
</g>
<!-- cell&#45;23&#45;&gt;prop&#45;25 -->
<g id="edge41" class="edge"><title>cell&#45;23&#45;&gt;prop&#45;25</title>
<path style="fill:none;stroke:black;" d="M816,-147C807,-134 792,-119 776,-109 767,-103 762,-107 753,-101 745,-94 737,-85 731,-77"/>
<polygon style="fill:black;stroke:black;" points="733.916,-75.0418 726,-68 727.797,-78.4414 733.916,-75.0418"/>
<text text-anchor="middle" x="805" y="-113.9" style="font-family:Times New Roman;font-size:14.00;">1</text>
</g>
<!-- cell&#45;14&#45;&gt;prop&#45;13 -->
<g id="edge7" class="edge"><title>cell&#45;14&#45;&gt;prop&#45;13</title>
<path style="fill:none;stroke:black;" d="M228,-145C226,-133 226,-118 235,-109 247,-97 367,-108 381,-101 391,-96 399,-86 405,-77"/>
<polygon style="fill:black;stroke:black;" points="408.137,-78.5596 409,-68 401.74,-75.7166 408.137,-78.5596"/>
<text text-anchor="middle" x="239" y="-113.9" style="font-family:Times New Roman;font-size:14.00;">0</text>
</g>
<!-- cell&#45;14&#45;&gt;prop&#45;17 -->
<g id="edge13" class="edge"><title>cell&#45;14&#45;&gt;prop&#45;17</title>
<path style="fill:none;stroke:black;" d="M216,-148C205,-136 195,-120 205,-109 221,-91 289,-112 309,-101 319,-96 327,-86 333,-77"/>
<polygon style="fill:black;stroke:black;" points="336.137,-78.5596 337,-68 329.74,-75.7166 336.137,-78.5596"/>
<text text-anchor="middle" x="209" y="-113.9" style="font-family:Times New Roman;font-size:14.00;">0</text>
</g>
<!-- cell&#45;16&#45;&gt;prop&#45;17 -->
<g id="edge15" class="edge"><title>cell&#45;16&#45;&gt;prop&#45;17</title>
<path style="fill:none;stroke:black;" d="M509,-146C501,-133 488,-117 471,-109 436,-90 416,-121 381,-101 371,-96 364,-86 358,-77"/>
<polygon style="fill:black;stroke:black;" points="360.916,-75.0418 353,-68 354.797,-78.4414 360.916,-75.0418"/>
<text text-anchor="middle" x="500" y="-113.9" style="font-family:Times New Roman;font-size:14.00;">1</text>
</g>
<!-- cell&#45;16&#45;&gt;prop&#45;18 -->
<g id="edge19" class="edge"><title>cell&#45;16&#45;&gt;prop&#45;18</title>
<path style="fill:none;stroke:black;" d="M500,-149C482,-136 453,-118 424,-109 400,-101 332,-113 309,-101 299,-96 292,-86 286,-77"/>
<polygon style="fill:black;stroke:black;" points="288.916,-75.0418 281,-68 282.797,-78.4414 288.916,-75.0418"/>
<text text-anchor="middle" x="474" y="-113.9" style="font-family:Times New Roman;font-size:14.00;">0</text>
</g>
<!-- cell&#45;16&#45;&gt;prop&#45;24 -->
<g id="edge35" class="edge"><title>cell&#45;16&#45;&gt;prop&#45;24</title>
<path style="fill:none;stroke:black;" d="M531,-147C543,-132 561,-113 570,-109 596,-97 801,-114 825,-101 835,-96 842,-86 848,-77"/>
<polygon style="fill:black;stroke:black;" points="851.203,-78.4414 853,-68 845.084,-75.0418 851.203,-78.4414"/>
<text text-anchor="middle" x="574" y="-113.9" style="font-family:Times New Roman;font-size:14.00;">1</text>
</g>
<!-- cell&#45;16&#45;&gt;prop&#45;25 -->
<g id="edge39" class="edge"><title>cell&#45;16&#45;&gt;prop&#45;25</title>
<path style="fill:none;stroke:black;" d="M518,-145C519,-133 523,-117 533,-109 559,-88 650,-116 678,-101 689,-96 697,-86 703,-77"/>
<polygon style="fill:black;stroke:black;" points="706.203,-78.4414 708,-68 700.084,-75.0418 706.203,-78.4414"/>
<text text-anchor="middle" x="537" y="-113.9" style="font-family:Times New Roman;font-size:14.00;">0</text>
</g>
<!-- cell&#45;34&#45;&gt;prop&#45;33 -->
<g id="edge63" class="edge"><title>cell&#45;34&#45;&gt;prop&#45;33</title>
<path style="fill:none;stroke:black;" d="M50,-145C53,-133 59,-119 69,-109 76,-102 81,-106 87,-101 95,-94 102,-85 108,-77"/>
<polygon style="fill:black;stroke:black;" points="111.365,-78.262 114,-68 105.541,-74.3791 111.365,-78.262"/>
<text text-anchor="middle" x="73" y="-113.9" style="font-family:Times New Roman;font-size:14.00;">0</text>
</g>
<!-- cell&#45;34&#45;&gt;prop&#45;36 -->
<g id="edge69" class="edge"><title>cell&#45;34&#45;&gt;prop&#45;36</title>
<path style="fill:none;stroke:black;" d="M57,-146C67,-134 82,-118 99,-109 124,-96 136,-114 159,-101 169,-95 176,-86 182,-77"/>
<polygon style="fill:black;stroke:black;" points="185.203,-78.4414 187,-68 179.084,-75.0418 185.203,-78.4414"/>
<text text-anchor="middle" x="103" y="-113.9" style="font-family:Times New Roman;font-size:14.00;">0</text>
</g>
</g>
</svg>
